<svg xmlns="http://www.w3.org/2000/svg" width="73" height="69" viewBox="0 0 73 69" fill="none">
  <path d="M8.92041 9.34375L15.193 10.3788L18.0971 43.3636C18.3293 46.0575 20.6906 48.1246 23.5253 48.116H56.4233C59.1283 48.1218 61.4233 46.2243 61.8063 43.6713L64.6681 24.817C64.9878 22.7096 63.4528 20.7546 61.2454 20.4499C61.0523 20.424 16.2002 20.4096 16.2002 20.4096" stroke="#433E3E" stroke-width="3" stroke-linecap="square" stroke-linejoin="round"/>
  <path d="M43.2236 31.0352H51.5861" stroke="#433E3E" stroke-width="3" stroke-linecap="square" stroke-linejoin="round"/>
  <path fill-rule="evenodd" clip-rule="evenodd" d="M22.2023 58.082C23.11 58.082 23.8428 58.7835 23.8428 59.646C23.8428 60.5114 23.11 61.2129 22.2023 61.2129C21.2946 61.2129 20.5618 60.5114 20.5618 59.646C20.5618 58.7835 21.2946 58.082 22.2023 58.082Z" fill="#433E3E" stroke="#433E3E" stroke-width="3" stroke-linecap="square" stroke-linejoin="round"/>
  <path fill-rule="evenodd" clip-rule="evenodd" d="M56.2201 58.082C57.1278 58.082 57.8637 58.7835 57.8637 59.646C57.8637 60.5114 57.1278 61.2129 56.2201 61.2129C55.3124 61.2129 54.5796 60.5114 54.5796 59.646C54.5796 58.7835 55.3124 58.082 56.2201 58.082Z" fill="#433E3E" stroke="#433E3E" stroke-width="3" stroke-linecap="square" stroke-linejoin="round"/>
</svg>