<svg width="46" height="46" viewBox="0 0 46 46" fill="none" xmlns="http://www.w3.org/2000/svg">
<path d="M3.83301 5.75V4.3125C3.45176 4.3125 3.08613 4.46395 2.81654 4.73353C2.54696 5.00312 2.39551 5.36875 2.39551 5.75H3.83301ZM24.9163 5.75H26.3538C26.3538 5.36875 26.2024 5.00312 25.9328 4.73353C25.6632 4.46395 25.2976 4.3125 24.9163 4.3125V5.75ZM24.9163 17.25V15.8125C24.5351 15.8125 24.1695 15.964 23.8999 16.2335C23.6303 16.5031 23.4788 16.8688 23.4788 17.25H24.9163ZM3.83301 7.1875H24.9163V4.3125H3.83301V7.1875ZM23.4788 5.75V36.4167H26.3538V5.75H23.4788ZM5.27051 32.5833V5.75H2.39551V32.5833H5.27051ZM24.9163 18.6875H34.4997V15.8125H24.9163V18.6875ZM40.7288 24.9167V32.5833H43.6038V24.9167H40.7288ZM26.3538 36.4167V17.25H23.4788V36.4167H26.3538ZM36.194 38.111C35.9715 38.3335 35.7074 38.5101 35.4167 38.6305C35.1259 38.751 34.8144 38.8129 34.4997 38.8129C34.185 38.8129 33.8734 38.751 33.5827 38.6305C33.292 38.5101 33.0278 38.3335 32.8053 38.111L30.7737 40.1427C31.7621 41.1311 33.1028 41.6864 34.5006 41.6864C35.8985 41.6864 37.2391 41.1311 38.2276 40.1427L36.194 38.111ZM32.8053 34.7223C33.0278 34.4998 33.292 34.3233 33.5827 34.2028C33.8734 34.0824 34.185 34.0204 34.4997 34.0204C34.8144 34.0204 35.1259 34.0824 35.4167 34.2028C35.7074 34.3233 35.9715 34.4998 36.194 34.7223L38.2257 32.6907C37.2372 31.7022 35.8966 31.147 34.4987 31.147C33.1008 31.147 31.7602 31.7022 30.7718 32.6907L32.8053 34.7223ZM13.194 38.111C12.9715 38.3335 12.7074 38.5101 12.4167 38.6305C12.1259 38.751 11.8144 38.8129 11.4997 38.8129C11.185 38.8129 10.8734 38.751 10.5827 38.6305C10.292 38.5101 10.0278 38.3335 9.80534 38.111L7.77367 40.1427C8.76214 41.1311 10.1028 41.6864 11.5006 41.6864C12.8985 41.6864 14.2391 41.1311 15.2276 40.1427L13.194 38.111ZM9.80534 34.7223C10.0278 34.4998 10.292 34.3233 10.5827 34.2028C10.8734 34.0824 11.185 34.0204 11.4997 34.0204C11.8144 34.0204 12.1259 34.0824 12.4167 34.2028C12.7074 34.3233 12.9715 34.4998 13.194 34.7223L15.2257 32.6907C14.2372 31.7022 12.8966 31.147 11.4987 31.147C10.1008 31.147 8.76022 31.7022 7.77176 32.6907L9.80534 34.7223ZM36.194 34.7223C36.6617 35.19 36.8955 35.8014 36.8955 36.4167H39.7705C39.7705 35.0693 39.2549 33.718 38.2276 32.6888L36.194 34.7223ZM36.8955 36.4167C36.8955 37.0319 36.6617 37.6433 36.194 38.111L38.2276 40.1427C38.7177 39.6539 39.1045 39.0731 39.3696 38.4337C39.6347 37.7943 39.771 37.1088 39.7705 36.4167H36.8955ZM30.6663 34.9792H24.9163V37.8542H30.6663V34.9792ZM32.8053 38.111C32.5824 37.8889 32.4056 37.6248 32.2852 37.334C32.1648 37.0432 32.1032 36.7314 32.1038 36.4167H29.2288C29.2288 37.7641 29.7444 39.1153 30.7718 40.1446L32.8053 38.111ZM32.1038 36.4167C32.1038 35.8014 32.3377 35.19 32.8053 34.7223L30.7718 32.6907C30.2817 33.1795 29.8948 33.7602 29.6297 34.3996C29.3646 35.039 29.2284 35.7245 29.2288 36.4167H32.1038ZM9.80534 38.111C9.58237 37.8889 9.40559 37.6248 9.28519 37.334C9.16479 37.0432 9.10315 36.7314 9.10384 36.4167H6.22884C6.22884 37.7641 6.74442 39.1153 7.77176 40.1446L9.80534 38.111ZM9.10384 36.4167C9.10384 35.8014 9.33768 35.19 9.80534 34.7223L7.77367 32.6907C7.28366 33.1795 6.89496 33.7603 6.62986 34.3997C6.36477 35.0391 6.22849 35.7245 6.22884 36.4167H9.10384ZM24.9163 34.9792H15.333V37.8542H24.9163V34.9792ZM13.194 34.7223C13.6617 35.19 13.8955 35.8014 13.8955 36.4167H16.7705C16.7705 35.0693 16.2549 33.718 15.2276 32.6888L13.194 34.7223ZM13.8955 36.4167C13.8955 37.0319 13.6617 37.6433 13.194 38.111L15.2257 40.1427C15.7157 39.6538 16.1044 39.073 16.3695 38.4337C16.6346 37.7943 16.7709 37.1088 16.7705 36.4167H13.8955ZM40.7288 32.5833C40.7288 33.9058 39.6555 34.9792 38.333 34.9792V37.8542C39.7309 37.8542 41.0716 37.2989 42.0601 36.3104C43.0485 35.3219 43.6038 33.9812 43.6038 32.5833H40.7288ZM34.4997 18.6875C36.1518 18.6875 37.7362 19.3438 38.9044 20.512C40.0726 21.6802 40.7288 23.2646 40.7288 24.9167H43.6038C43.6038 22.5021 42.6447 20.1864 40.9373 18.479C39.2299 16.7717 36.9142 15.8125 34.4997 15.8125V18.6875ZM2.39551 32.5833C2.39551 33.9812 2.95083 35.3219 3.9393 36.3104C4.92777 37.2989 6.26843 37.8542 7.66634 37.8542V34.9792C6.34384 34.9792 5.27051 33.9058 5.27051 32.5833H2.39551Z" fill="#F6F6F6"/>
</svg>
