<svg xmlns="http://www.w3.org/2000/svg" width="17" height="17" viewBox="0 0 17 17" fill="none">
  <mask id="path-1-inside-1_74_6" fill="white">
    <path d="M14.3438 4.38281H11.5547V4.25C11.5547 3.43985 11.2329 2.66287 10.66 2.09001C10.0871 1.51714 9.31015 1.19531 8.5 1.19531C7.68985 1.19531 6.91288 1.51714 6.34001 2.09001C5.76714 2.66287 5.44531 3.43985 5.44531 4.25V4.38281H2.65625C2.40968 4.38281 2.17321 4.48076 1.99886 4.65511C1.82451 4.82946 1.72656 5.06593 1.72656 5.3125V13.2812C1.72656 13.5278 1.82451 13.7643 1.99886 13.9386C2.17321 14.113 2.40968 14.2109 2.65625 14.2109H14.3438C14.5903 14.2109 14.8268 14.113 15.0011 13.9386C15.1755 13.7643 15.2734 13.5278 15.2734 13.2812V5.3125C15.2734 5.06593 15.1755 4.82946 15.0011 4.65511C14.8268 4.48076 14.5903 4.38281 14.3438 4.38281ZM6.24219 4.25C6.24219 3.65119 6.48006 3.07691 6.90349 2.65349C7.32691 2.23006 7.90119 1.99219 8.5 1.99219C9.09881 1.99219 9.67309 2.23006 10.0965 2.65349C10.5199 3.07691 10.7578 3.65119 10.7578 4.25V4.38281H6.24219V4.25ZM14.4766 13.2812C14.4766 13.3165 14.4626 13.3503 14.4377 13.3752C14.4128 13.4001 14.379 13.4141 14.3438 13.4141H2.65625C2.62103 13.4141 2.58724 13.4001 2.56234 13.3752C2.53743 13.3503 2.52344 13.3165 2.52344 13.2812V5.3125C2.52344 5.27728 2.53743 5.24349 2.56234 5.21859C2.58724 5.19368 2.62103 5.17969 2.65625 5.17969H5.44531V6.375C5.44531 6.48067 5.48729 6.58202 5.56201 6.65674C5.63673 6.73146 5.73808 6.77344 5.84375 6.77344C5.94942 6.77344 6.05077 6.73146 6.12549 6.65674C6.20021 6.58202 6.24219 6.48067 6.24219 6.375V5.17969H10.7578V6.375C10.7578 6.48067 10.7998 6.58202 10.8745 6.65674C10.9492 6.73146 11.0506 6.77344 11.1562 6.77344C11.2619 6.77344 11.3633 6.73146 11.438 6.65674C11.5127 6.58202 11.5547 6.48067 11.5547 6.375V5.17969H14.3438C14.379 5.17969 14.4128 5.19368 14.4377 5.21859C14.4626 5.24349 14.4766 5.27728 14.4766 5.3125V13.2812Z"/>
  </mask>
  <path d="M14.3438 4.38281H11.5547V4.25C11.5547 3.43985 11.2329 2.66287 10.66 2.09001C10.0871 1.51714 9.31015 1.19531 8.5 1.19531C7.68985 1.19531 6.91288 1.51714 6.34001 2.09001C5.76714 2.66287 5.44531 3.43985 5.44531 4.25V4.38281H2.65625C2.40968 4.38281 2.17321 4.48076 1.99886 4.65511C1.82451 4.82946 1.72656 5.06593 1.72656 5.3125V13.2812C1.72656 13.5278 1.82451 13.7643 1.99886 13.9386C2.17321 14.113 2.40968 14.2109 2.65625 14.2109H14.3438C14.5903 14.2109 14.8268 14.113 15.0011 13.9386C15.1755 13.7643 15.2734 13.5278 15.2734 13.2812V5.3125C15.2734 5.06593 15.1755 4.82946 15.0011 4.65511C14.8268 4.48076 14.5903 4.38281 14.3438 4.38281ZM6.24219 4.25C6.24219 3.65119 6.48006 3.07691 6.90349 2.65349C7.32691 2.23006 7.90119 1.99219 8.5 1.99219C9.09881 1.99219 9.67309 2.23006 10.0965 2.65349C10.5199 3.07691 10.7578 3.65119 10.7578 4.25V4.38281H6.24219V4.25ZM14.4766 13.2812C14.4766 13.3165 14.4626 13.3503 14.4377 13.3752C14.4128 13.4001 14.379 13.4141 14.3438 13.4141H2.65625C2.62103 13.4141 2.58724 13.4001 2.56234 13.3752C2.53743 13.3503 2.52344 13.3165 2.52344 13.2812V5.3125C2.52344 5.27728 2.53743 5.24349 2.56234 5.21859C2.58724 5.19368 2.62103 5.17969 2.65625 5.17969H5.44531V6.375C5.44531 6.48067 5.48729 6.58202 5.56201 6.65674C5.63673 6.73146 5.73808 6.77344 5.84375 6.77344C5.94942 6.77344 6.05077 6.73146 6.12549 6.65674C6.20021 6.58202 6.24219 6.48067 6.24219 6.375V5.17969H10.7578V6.375C10.7578 6.48067 10.7998 6.58202 10.8745 6.65674C10.9492 6.73146 11.0506 6.77344 11.1562 6.77344C11.2619 6.77344 11.3633 6.73146 11.438 6.65674C11.5127 6.58202 11.5547 6.48067 11.5547 6.375V5.17969H14.3438C14.379 5.17969 14.4128 5.19368 14.4377 5.21859C14.4626 5.24349 14.4766 5.27728 14.4766 5.3125V13.2812Z" fill="black"/>
  <path d="M11.5547 4.38281H10.0547V5.88281H11.5547V4.38281ZM11.5547 4.25H13.0547H11.5547ZM8.5 1.19531V-0.304688V1.19531ZM5.44531 4.25H3.94531H5.44531ZM5.44531 4.38281V5.88281H6.94531V4.38281H5.44531ZM1.72656 5.3125H0.226562H1.72656ZM8.5 1.99219V0.492188V1.99219ZM10.7578 4.25H12.2578H10.7578ZM10.7578 4.38281V5.88281H12.2578V4.38281H10.7578ZM6.24219 4.38281H4.74219V5.88281H6.24219V4.38281ZM5.44531 5.17969H6.94531V3.67969H5.44531V5.17969ZM6.24219 5.17969V3.67969H4.74219V5.17969H6.24219ZM10.7578 5.17969H12.2578V3.67969H10.7578V5.17969ZM11.5547 5.17969V3.67969H10.0547V5.17969H11.5547ZM14.3438 2.88281H11.5547V5.88281H14.3438V2.88281ZM13.0547 4.38281V4.25H10.0547V4.38281H13.0547ZM13.0547 4.25C13.0547 3.04202 12.5748 1.88352 11.7207 1.02935L9.59933 3.15067C9.89089 3.44223 10.0547 3.83767 10.0547 4.25H13.0547ZM11.7207 1.02935C10.8665 0.17518 9.70798 -0.304688 8.5 -0.304688V2.69531C8.91233 2.69531 9.30777 2.85911 9.59933 3.15067L11.7207 1.02935ZM8.5 -0.304688C7.29202 -0.304688 6.13352 0.17518 5.27935 1.02935L7.40067 3.15067C7.69223 2.85911 8.08767 2.69531 8.5 2.69531V-0.304688ZM5.27935 1.02935C4.42518 1.88352 3.94531 3.04202 3.94531 4.25H6.94531C6.94531 3.83767 7.10911 3.44223 7.40067 3.15067L5.27935 1.02935ZM3.94531 4.25V4.38281H6.94531V4.25H3.94531ZM5.44531 2.88281H2.65625V5.88281H5.44531V2.88281ZM2.65625 2.88281C2.01186 2.88281 1.39386 3.1388 0.938202 3.59445L3.05952 5.71577C2.95257 5.82273 2.80751 5.88281 2.65625 5.88281V2.88281ZM0.938202 3.59445C0.482547 4.05011 0.226562 4.66811 0.226562 5.3125H3.22656C3.22656 5.46376 3.16648 5.60882 3.05952 5.71577L0.938202 3.59445ZM0.226562 5.3125V13.2812H3.22656V5.3125H0.226562ZM0.226562 13.2812C0.226562 13.9256 0.482547 14.5436 0.938202 14.9993L3.05952 12.878C3.16648 12.9849 3.22656 13.13 3.22656 13.2812H0.226562ZM0.938202 14.9993C1.39386 15.455 2.01186 15.7109 2.65625 15.7109V12.7109C2.80751 12.7109 2.95257 12.771 3.05952 12.878L0.938202 14.9993ZM2.65625 15.7109H14.3438V12.7109H2.65625V15.7109ZM14.3438 15.7109C14.9881 15.7109 15.6061 15.455 16.0618 14.9993L13.9405 12.878C14.0474 12.771 14.1925 12.7109 14.3438 12.7109V15.7109ZM16.0618 14.9993C16.5175 14.5436 16.7734 13.9256 16.7734 13.2812H13.7734C13.7734 13.13 13.8335 12.9849 13.9405 12.878L16.0618 14.9993ZM16.7734 13.2812V5.3125H13.7734V13.2812H16.7734ZM16.7734 5.3125C16.7734 4.66811 16.5175 4.05011 16.0618 3.59445L13.9405 5.71577C13.8335 5.60882 13.7734 5.46376 13.7734 5.3125H16.7734ZM16.0618 3.59445C15.6061 3.1388 14.9881 2.88281 14.3438 2.88281V5.88281C14.1925 5.88281 14.0474 5.82273 13.9405 5.71577L16.0618 3.59445ZM7.74219 4.25C7.74219 4.04902 7.82203 3.85626 7.96415 3.71415L5.84282 1.59283C5.1381 2.29755 4.74219 3.25337 4.74219 4.25H7.74219ZM7.96415 3.71415C8.10626 3.57203 8.29902 3.49219 8.5 3.49219V0.492188C7.50337 0.492188 6.54755 0.888099 5.84282 1.59283L7.96415 3.71415ZM8.5 3.49219C8.70098 3.49219 8.89374 3.57203 9.03585 3.71415L11.1572 1.59283C10.4524 0.888099 9.49663 0.492188 8.5 0.492188V3.49219ZM9.03585 3.71415C9.17797 3.85626 9.25781 4.04902 9.25781 4.25H12.2578C12.2578 3.25337 11.8619 2.29755 11.1572 1.59283L9.03585 3.71415ZM9.25781 4.25V4.38281H12.2578V4.25H9.25781ZM10.7578 2.88281H6.24219V5.88281H10.7578V2.88281ZM7.74219 4.38281V4.25H4.74219V4.38281H7.74219ZM12.9766 13.2812C12.9766 12.9187 13.1206 12.5709 13.377 12.3145L15.4983 14.4358C15.8045 14.1296 15.9766 13.7143 15.9766 13.2812H12.9766ZM13.377 12.3145C13.6334 12.0581 13.9812 11.9141 14.3438 11.9141V14.9141C14.7768 14.9141 15.1921 14.742 15.4983 14.4358L13.377 12.3145ZM14.3438 11.9141H2.65625V14.9141H14.3438V11.9141ZM2.65625 11.9141C3.01885 11.9141 3.3666 12.0581 3.623 12.3145L1.50168 14.4358C1.80789 14.742 2.22321 14.9141 2.65625 14.9141V11.9141ZM3.623 12.3145C3.8794 12.5709 4.02344 12.9187 4.02344 13.2812H1.02344C1.02344 13.7143 1.19546 14.1296 1.50168 14.4358L3.623 12.3145ZM4.02344 13.2812V5.3125H1.02344V13.2812H4.02344ZM4.02344 5.3125C4.02344 5.6751 3.8794 6.02285 3.623 6.27925L1.50168 4.15793C1.19546 4.46414 1.02344 4.87946 1.02344 5.3125H4.02344ZM3.623 6.27925C3.3666 6.53565 3.01885 6.67969 2.65625 6.67969V3.67969C2.22321 3.67969 1.80789 3.85171 1.50168 4.15793L3.623 6.27925ZM2.65625 6.67969H5.44531V3.67969H2.65625V6.67969ZM3.94531 5.17969V6.375H6.94531V5.17969H3.94531ZM3.94531 6.375C3.94531 6.8785 4.14533 7.36137 4.50135 7.7174L6.62267 5.59608C6.82925 5.80266 6.94531 6.08284 6.94531 6.375H3.94531ZM4.50135 7.7174C4.85738 8.07342 5.34025 8.27344 5.84375 8.27344V5.27344C6.13591 5.27344 6.41609 5.3895 6.62267 5.59608L4.50135 7.7174ZM5.84375 8.27344C6.34725 8.27344 6.83012 8.07342 7.18615 7.7174L5.06483 5.59608C5.27141 5.3895 5.55159 5.27344 5.84375 5.27344V8.27344ZM7.18615 7.7174C7.54217 7.36137 7.74219 6.8785 7.74219 6.375H4.74219C4.74219 6.08284 4.85825 5.80266 5.06483 5.59608L7.18615 7.7174ZM7.74219 6.375V5.17969H4.74219V6.375H7.74219ZM6.24219 6.67969H10.7578V3.67969H6.24219V6.67969ZM9.25781 5.17969V6.375H12.2578V5.17969H9.25781ZM9.25781 6.375C9.25781 6.87849 9.45782 7.36137 9.81385 7.7174L11.9352 5.59608C12.1418 5.80266 12.2578 6.08285 12.2578 6.375H9.25781ZM9.81385 7.7174C10.1699 8.07342 10.6528 8.27344 11.1562 8.27344V5.27344C11.4484 5.27344 11.7286 5.38949 11.9352 5.59608L9.81385 7.7174ZM11.1562 8.27344C11.6597 8.27344 12.1426 8.07342 12.4986 7.7174L10.3773 5.59608C10.5839 5.38949 10.8641 5.27344 11.1562 5.27344V8.27344ZM12.4986 7.7174C12.8547 7.36137 13.0547 6.87849 13.0547 6.375H10.0547C10.0547 6.08285 10.1707 5.80266 10.3773 5.59608L12.4986 7.7174ZM13.0547 6.375V5.17969H10.0547V6.375H13.0547ZM11.5547 6.67969H14.3438V3.67969H11.5547V6.67969ZM14.3438 6.67969C13.9812 6.67969 13.6334 6.53565 13.377 6.27925L15.4983 4.15793C15.1921 3.85171 14.7768 3.67969 14.3438 3.67969V6.67969ZM13.377 6.27925C13.1206 6.02285 12.9766 5.6751 12.9766 5.3125H15.9766C15.9766 4.87946 15.8045 4.46414 15.4983 4.15793L13.377 6.27925ZM12.9766 5.3125V13.2812H15.9766V5.3125H12.9766Z" fill="white" mask="url(#path-1-inside-1_74_6)"/>
</svg>