<svg xmlns="http://www.w3.org/2000/svg" width="15" height="15" viewBox="0 0 15 15" fill="none">
  <path d="M7.59679 7.5L8.03039 7.06629L14.365 0.730358C14.3587 0.736572 14.3513 0.741502 14.3432 0.74487C14.335 0.748256 14.3263 0.75 14.3174 0.75C14.3085 0.75 14.2998 0.748257 14.2916 0.74487C14.2834 0.741482 14.276 0.736517 14.2697 0.730262L14.3174 0.682595M7.59679 7.5L14.8001 1.16527L14.3651 0.730258L14.3174 0.682595M7.59679 7.5L8.03039 7.93371L14.3651 14.2697M7.59679 7.5L7.5 7.59679L7.93371 8.03039L14.2697 14.3651M14.3174 0.682595L14.2551 0.708392C14.2517 0.700212 14.25 0.691449 14.25 0.682601C14.25 0.673754 14.2517 0.66499 14.2551 0.65681L14.3174 0.682595ZM14.3174 0.68259L14.2697 0.634944L14.3174 0.68259ZM14.3174 0.68259L14.2551 0.656804C14.2585 0.648695 14.2634 0.641318 14.2696 0.635089L7.93371 6.96961L7.9337 6.96962L7.50001 7.40322L14.3174 0.68259ZM14.3651 14.2697C14.3524 14.2571 14.3353 14.25 14.3174 14.25C14.2995 14.25 14.2824 14.2571 14.2697 14.2697L14.3174 14.3174M14.3651 14.2697L14.3174 14.3174M14.3651 14.2697L14.8001 13.8347L14.3651 14.2698L14.3175 14.3174L14.3175 14.3174L14.3174 14.3175L14.2698 14.3651L14.2697 14.3651M14.3174 14.3174L14.2697 14.2697C14.2571 14.2824 14.25 14.2995 14.25 14.3174C14.25 14.3353 14.2571 14.3524 14.2697 14.3651M14.3174 14.3174L14.2697 14.3651M14.3175 0.682601L14.3175 0.68257L14.3175 0.682601ZM14.3174 0.682548L14.3174 0.682528L14.3174 0.682548ZM14.3174 0.682497L14.3173 0.682423L14.3174 0.682497ZM0.682528 0.682571L0.682497 0.682601L0.682528 0.682571ZM0.682571 0.682528L0.682549 0.682549L0.682674 0.682424L0.682601 0.682497L0.682571 0.682528Z" fill="black" stroke="black" stroke-width="1.5"/>
</svg>