<svg xmlns="http://www.w3.org/2000/svg" width="25" height="25" viewBox="0 0 25 25" fill="none">
  <path d="M12.5 0C9.10781 0 8.68125 0.015625 7.34844 0.075C6.01562 0.1375 5.10781 0.346875 4.3125 0.65625C3.47827 0.97003 2.72264 1.46223 2.09844 2.09844C1.46262 2.72296 0.97048 3.4785 0.65625 4.3125C0.346875 5.10625 0.135937 6.01562 0.075 7.34375C0.015625 8.67969 0 9.10469 0 12.5016C0 15.8953 0.015625 16.3203 0.075 17.6531C0.1375 18.9844 0.346875 19.8922 0.65625 20.6875C0.976562 21.5094 1.40313 22.2062 2.09844 22.9016C2.79219 23.5969 3.48906 24.025 4.31094 24.3438C5.10781 24.6531 6.01406 24.8641 7.34531 24.925C8.67969 24.9844 9.10469 25 12.5 25C15.8953 25 16.3188 24.9844 17.6531 24.925C18.9828 24.8625 19.8938 24.6531 20.6891 24.3438C21.5228 24.0298 22.2778 23.5376 22.9016 22.9016C23.5969 22.2062 24.0234 21.5094 24.3438 20.6875C24.6516 19.8922 24.8625 18.9844 24.925 17.6531C24.9844 16.3203 25 15.8953 25 12.5C25 9.10469 24.9844 8.67969 24.925 7.34531C24.8625 6.01563 24.6516 5.10625 24.3438 4.3125C24.0296 3.47848 23.5374 2.72293 22.9016 2.09844C22.2775 1.46199 21.5219 0.969758 20.6875 0.65625C19.8906 0.346875 18.9813 0.135937 17.6516 0.075C16.3172 0.015625 15.8938 0 12.4969 0H12.5016H12.5ZM11.3797 2.25312H12.5016C15.8391 2.25312 16.2344 2.26406 17.5516 2.325C18.7703 2.37969 19.4328 2.58437 19.8734 2.75469C20.4562 2.98125 20.8734 3.25312 21.3109 3.69062C21.7484 4.12813 22.0188 4.54375 22.2453 5.12813C22.4172 5.56719 22.6203 6.22969 22.675 7.44844C22.7359 8.76562 22.7484 9.16094 22.7484 12.4969C22.7484 15.8328 22.7359 16.2297 22.675 17.5469C22.6203 18.7656 22.4156 19.4266 22.2453 19.8672C22.0449 20.4099 21.725 20.9007 21.3094 21.3031C20.8719 21.7406 20.4563 22.0109 19.8719 22.2375C19.4344 22.4094 18.7719 22.6125 17.5516 22.6688C16.2344 22.7281 15.8391 22.7422 12.5016 22.7422C9.16406 22.7422 8.76719 22.7281 7.45 22.6688C6.23125 22.6125 5.57031 22.4094 5.12969 22.2375C4.58672 22.0374 4.09551 21.7181 3.69219 21.3031C3.27617 20.9001 2.95582 20.4088 2.75469 19.8656C2.58437 19.4266 2.37969 18.7641 2.325 17.5453C2.26562 16.2281 2.25312 15.8328 2.25312 12.4937C2.25312 9.15625 2.26562 8.7625 2.325 7.44531C2.38125 6.22656 2.58438 5.56406 2.75625 5.12344C2.98281 4.54063 3.25469 4.12344 3.69219 3.68594C4.12969 3.24844 4.54531 2.97813 5.12969 2.75156C5.57031 2.57969 6.23125 2.37656 7.45 2.32031C8.60313 2.26719 9.05 2.25156 11.3797 2.25V2.25312ZM19.1734 4.32812C18.9765 4.32812 18.7814 4.36692 18.5994 4.44231C18.4174 4.51769 18.2521 4.62818 18.1128 4.76746C17.9735 4.90675 17.863 5.07211 17.7876 5.2541C17.7122 5.43609 17.6734 5.63114 17.6734 5.82812C17.6734 6.02511 17.7122 6.22016 17.7876 6.40215C17.863 6.58414 17.9735 6.7495 18.1128 6.88879C18.2521 7.02807 18.4174 7.13856 18.5994 7.21394C18.7814 7.28933 18.9765 7.32812 19.1734 7.32812C19.5713 7.32812 19.9528 7.17009 20.2341 6.88879C20.5154 6.60748 20.6734 6.22595 20.6734 5.82812C20.6734 5.4303 20.5154 5.04877 20.2341 4.76746C19.9528 4.48616 19.5713 4.32812 19.1734 4.32812ZM12.5016 6.08125C11.6501 6.06797 10.8045 6.2242 10.014 6.54085C9.22353 6.85749 8.50393 7.32824 7.89711 7.92566C7.29029 8.52309 6.80838 9.23526 6.47944 10.0207C6.1505 10.8062 5.98109 11.6492 5.98109 12.5008C5.98109 13.3523 6.1505 14.1954 6.47944 14.9808C6.80838 15.7663 7.29029 16.4785 7.89711 17.0759C8.50393 17.6733 9.22353 18.1441 10.014 18.4607C10.8045 18.7774 11.6501 18.9336 12.5016 18.9203C14.1868 18.894 15.7941 18.2061 16.9765 17.0051C18.159 15.804 18.8217 14.1862 18.8217 12.5008C18.8217 10.8154 18.159 9.19752 16.9765 7.99648C15.7941 6.79545 14.1868 6.10754 12.5016 6.08125ZM12.5016 8.33281C13.6068 8.33281 14.6667 8.77185 15.4482 9.55335C16.2297 10.3349 16.6688 11.3948 16.6688 12.5C16.6688 13.6052 16.2297 14.6651 15.4482 15.4466C14.6667 16.2281 13.6068 16.6672 12.5016 16.6672C11.3964 16.6672 10.3364 16.2281 9.55492 15.4466C8.77342 14.6651 8.33438 13.6052 8.33438 12.5C8.33438 11.3948 8.77342 10.3349 9.55492 9.55335C10.3364 8.77185 11.3964 8.33281 12.5016 8.33281Z" fill="white"/>
</svg>