<svg width="43" height="43" viewBox="0 0 43 43" fill="none" xmlns="http://www.w3.org/2000/svg">
<path d="M21.5 0C15.6654 0 14.9318 0.026875 12.6393 0.129C10.3469 0.2365 8.78544 0.596625 7.4175 1.12875C5.98263 1.66845 4.68295 2.51503 3.60931 3.60931C2.5157 4.6835 1.66923 5.98302 1.12875 7.4175C0.596625 8.78275 0.233812 10.3469 0.129 12.6312C0.026875 14.9291 0 15.6601 0 21.5027C0 27.3399 0.026875 28.0709 0.129 30.3634C0.2365 32.6531 0.596625 34.2146 1.12875 35.5825C1.67969 36.9961 2.41338 38.1947 3.60931 39.3907C4.80256 40.5866 6.00119 41.323 7.41481 41.8713C8.78544 42.4034 10.3442 42.7662 12.6339 42.871C14.9291 42.9731 15.6601 43 21.5 43C27.3399 43 28.0683 42.9731 30.3634 42.871C32.6504 42.7635 34.2173 42.4034 35.5852 41.8713C37.0191 41.3313 38.3179 40.4847 39.3907 39.3907C40.5866 38.1947 41.3203 36.9961 41.8713 35.5825C42.4007 34.2146 42.7635 32.6531 42.871 30.3634C42.9731 28.0709 43 27.3399 43 21.5C43 15.6601 42.9731 14.9291 42.871 12.6339C42.7635 10.3469 42.4007 8.78275 41.8713 7.4175C41.3309 5.98298 40.4844 4.68344 39.3907 3.60931C38.3174 2.51463 37.0176 1.66798 35.5825 1.12875C34.2119 0.596625 32.6478 0.233812 30.3607 0.129C28.0656 0.026875 27.3372 0 21.4946 0H21.5027H21.5ZM19.5731 3.87538H21.5027C27.2432 3.87538 27.9231 3.89419 30.1887 3.999C32.2849 4.09306 33.4244 4.44513 34.1823 4.73806C35.1847 5.12775 35.9023 5.59538 36.6548 6.34788C37.4073 7.10038 37.8722 7.81525 38.2619 8.82038C38.5576 9.57556 38.9069 10.7151 39.001 12.8113C39.1058 15.0769 39.1273 15.7568 39.1273 21.4946C39.1273 27.2324 39.1058 27.9151 39.001 30.1806C38.9069 32.2769 38.5549 33.4137 38.2619 34.1716C37.9172 35.1051 37.3671 35.9492 36.6521 36.6414C35.8996 37.3939 35.1847 37.8588 34.1796 38.2485C33.4271 38.5441 32.2876 38.8935 30.1887 38.9902C27.9231 39.0924 27.2432 39.1166 21.5027 39.1166C15.7622 39.1166 15.0796 39.0924 12.814 38.9902C10.7178 38.8935 9.58094 38.5441 8.82306 38.2485C7.88915 37.9043 7.04428 37.3551 6.35056 36.6414C5.63502 35.9481 5.08401 35.1032 4.73806 34.1689C4.44513 33.4137 4.09306 32.2742 3.999 30.1779C3.89688 27.9124 3.87538 27.2324 3.87538 21.4893C3.87538 15.7487 3.89688 15.0715 3.999 12.8059C4.09575 10.7097 4.44513 9.57019 4.74075 8.81231C5.13044 7.80988 5.59806 7.09231 6.35056 6.33981C7.10306 5.58731 7.81794 5.12238 8.82306 4.73269C9.58094 4.43706 10.7178 4.08769 12.814 3.99094C14.7974 3.89956 15.566 3.87269 19.5731 3.87V3.87538ZM32.9783 7.44438C32.6395 7.44438 32.304 7.51111 31.991 7.64077C31.678 7.77042 31.3936 7.96046 31.154 8.20004C30.9144 8.43961 30.7244 8.72403 30.5947 9.03705C30.465 9.35007 30.3983 9.68556 30.3983 10.0244C30.3983 10.3632 30.465 10.6987 30.5947 11.0117C30.7244 11.3247 30.9144 11.6091 31.154 11.8487C31.3936 12.0883 31.678 12.2783 31.991 12.408C32.304 12.5376 32.6395 12.6044 32.9783 12.6044C33.6626 12.6044 34.3188 12.3326 34.8026 11.8487C35.2865 11.3649 35.5583 10.7086 35.5583 10.0244C35.5583 9.34012 35.2865 8.68388 34.8026 8.20004C34.3188 7.7162 33.6626 7.44438 32.9783 7.44438ZM21.5027 10.4598C20.0382 10.4369 18.5838 10.7056 17.2241 11.2503C15.8645 11.7949 14.6268 12.6046 13.583 13.6321C12.5393 14.6597 11.7104 15.8846 11.1446 17.2356C10.5789 18.5866 10.2875 20.0367 10.2875 21.5013C10.2875 22.966 10.5789 24.4161 11.1446 25.7671C11.7104 27.118 12.5393 28.343 13.583 29.3706C14.6268 30.3981 15.8645 31.2078 17.2241 31.7524C18.5838 32.2971 20.0382 32.5658 21.5027 32.5429C24.4013 32.4977 27.1658 31.3145 29.1996 29.2487C31.2334 27.183 32.3734 24.4003 32.3734 21.5013C32.3734 18.6024 31.2334 15.8197 29.1996 13.754C27.1658 11.6882 24.4013 10.505 21.5027 10.4598ZM21.5027 14.3324C23.4036 14.3324 25.2267 15.0876 26.5709 16.4318C27.9151 17.7759 28.6702 19.599 28.6702 21.5C28.6702 23.401 27.9151 25.2241 26.5709 26.5682C25.2267 27.9124 23.4036 28.6676 21.5027 28.6676C19.6017 28.6676 17.7786 27.9124 16.4345 26.5682C15.0903 25.2241 14.3351 23.401 14.3351 21.5C14.3351 19.599 15.0903 17.7759 16.4345 16.4318C17.7786 15.0876 19.6017 14.3324 21.5027 14.3324Z" fill="#F6F6F6"/>
</svg>
