<svg xmlns="http://www.w3.org/2000/svg" width="20" height="19" viewBox="0 0 20 19" fill="none">
  <path d="M10.25 0C7.67194 0 7.34775 0.011875 6.33481 0.057C5.32188 0.1045 4.63194 0.263625 4.0275 0.49875C3.39349 0.737223 2.81921 1.11129 2.34481 1.59481C1.86159 2.06945 1.48756 2.64366 1.24875 3.2775C1.01362 3.88075 0.853312 4.57187 0.807 5.58125C0.761875 6.59656 0.75 6.91956 0.75 9.50119C0.75 12.0804 0.761875 12.4034 0.807 13.4164C0.8545 14.4281 1.01362 15.1181 1.24875 15.7225C1.49219 16.3471 1.81638 16.8767 2.34481 17.4052C2.87206 17.9336 3.40169 18.259 4.02631 18.5012C4.63194 18.7364 5.32069 18.8967 6.33244 18.943C7.34656 18.9881 7.66956 19 10.25 19C12.8304 19 13.1523 18.9881 14.1664 18.943C15.1769 18.8955 15.8693 18.7364 16.4737 18.5012C17.1073 18.2627 17.6812 17.8886 18.1552 17.4052C18.6836 16.8767 19.0078 16.3471 19.2512 15.7225C19.4852 15.1181 19.6455 14.4281 19.693 13.4164C19.7381 12.4034 19.75 12.0804 19.75 9.5C19.75 6.91956 19.7381 6.59656 19.693 5.58244C19.6455 4.57188 19.4852 3.88075 19.2512 3.2775C19.0125 2.64364 18.6384 2.06943 18.1552 1.59481C17.6809 1.11111 17.1066 0.737016 16.4725 0.49875C15.8669 0.263625 15.1757 0.103312 14.1652 0.057C13.1511 0.011875 12.8293 0 10.2476 0H10.2512H10.25ZM9.39856 1.71238H10.2512C12.7877 1.71238 13.0881 1.72069 14.0892 1.767C15.0154 1.80856 15.5189 1.96413 15.8538 2.09356C16.2968 2.26575 16.6138 2.47237 16.9463 2.80487C17.2788 3.13737 17.4843 3.45325 17.6564 3.89738C17.7871 4.23106 17.9414 4.73456 17.983 5.66081C18.0293 6.66188 18.0388 6.96231 18.0388 9.49763C18.0388 12.0329 18.0293 12.3346 17.983 13.3356C17.9414 14.2619 17.7859 14.7642 17.6564 15.0991C17.5041 15.5116 17.261 15.8845 16.9451 16.1904C16.6126 16.5229 16.2968 16.7283 15.8526 16.9005C15.5201 17.0311 15.0166 17.1855 14.0892 17.2283C13.0881 17.2734 12.7877 17.2841 10.2512 17.2841C7.71469 17.2841 7.41306 17.2734 6.412 17.2283C5.48575 17.1855 4.98344 17.0311 4.64856 16.9005C4.23591 16.7484 3.86259 16.5057 3.55606 16.1904C3.23989 15.884 2.99642 15.5107 2.84356 15.0979C2.71413 14.7642 2.55856 14.2607 2.517 13.3344C2.47188 12.3334 2.46238 12.0329 2.46238 9.49525C2.46238 6.95875 2.47188 6.6595 2.517 5.65844C2.55975 4.73219 2.71413 4.22869 2.84475 3.89381C3.01694 3.45088 3.22356 3.13381 3.55606 2.80131C3.88856 2.46881 4.20444 2.26338 4.64856 2.09119C4.98344 1.96056 5.48575 1.80619 6.412 1.76344C7.28837 1.72306 7.628 1.71119 9.39856 1.71V1.71238ZM15.3218 3.28938C15.1721 3.28938 15.0239 3.31886 14.8856 3.37615C14.7472 3.43344 14.6216 3.51741 14.5157 3.62327C14.4099 3.72913 14.3259 3.8548 14.2686 3.99312C14.2113 4.13143 14.1818 4.27967 14.1818 4.42938C14.1818 4.57908 14.2113 4.72732 14.2686 4.86563C14.3259 5.00394 14.4099 5.12962 14.5157 5.23548C14.6216 5.34134 14.7472 5.42531 14.8856 5.4826C15.0239 5.53989 15.1721 5.56938 15.3218 5.56938C15.6242 5.56938 15.9141 5.44927 16.1279 5.23548C16.3417 5.02169 16.4618 4.73172 16.4618 4.42938C16.4618 4.12703 16.3417 3.83706 16.1279 3.62327C15.9141 3.40948 15.6242 3.28938 15.3218 3.28938ZM10.2512 4.62175C9.60408 4.61165 8.96144 4.73039 8.36066 4.97104C7.75989 5.2117 7.21299 5.56946 6.7518 6.0235C6.29062 6.47755 5.92437 7.0188 5.67437 7.61575C5.42438 8.21269 5.29563 8.85341 5.29563 9.50059C5.29563 10.1478 5.42438 10.7885 5.67437 11.3854C5.92437 11.9824 6.29062 12.5236 6.7518 12.9777C7.21299 13.4317 7.75989 13.7895 8.36066 14.0301C8.96144 14.2708 9.60408 14.3895 10.2512 14.3794C11.532 14.3595 12.7535 13.8366 13.6522 12.9239C14.5508 12.0111 15.0545 10.7815 15.0545 9.50059C15.0545 8.21967 14.5508 6.99011 13.6522 6.07733C12.7535 5.16454 11.532 4.64173 10.2512 4.62175ZM10.2512 6.33294C11.0911 6.33294 11.8967 6.66661 12.4906 7.26055C13.0846 7.85449 13.4183 8.66004 13.4183 9.5C13.4183 10.34 13.0846 11.1455 12.4906 11.7395C11.8967 12.3334 11.0911 12.6671 10.2512 12.6671C9.41123 12.6671 8.60568 12.3334 8.01174 11.7395C7.4178 11.1455 7.08413 10.34 7.08413 9.5C7.08413 8.66004 7.4178 7.85449 8.01174 7.26055C8.60568 6.66661 9.41123 6.33294 10.2512 6.33294Z" fill="black"/>
</svg>