<svg width="34" height="34" viewBox="0 0 34 34" fill="none" xmlns="http://www.w3.org/2000/svg">
<circle cx="17" cy="17" r="16.25" stroke="white" stroke-width="1.5"/>
<path d="M6.28409 20V19.2188H6.48295C6.64631 19.2188 6.78243 19.1868 6.89134 19.1229C7.00024 19.0566 7.08783 18.9418 7.15412 18.7784C7.22277 18.6127 7.27486 18.383 7.31037 18.0895C7.34825 17.7936 7.37547 17.4171 7.39205 16.9602L7.49148 14.5455H11.1278V20H10.2898V15.3267H8.28693L8.2017 17.2727C8.18277 17.7202 8.14252 18.1143 8.08097 18.4553C8.02178 18.7938 7.93063 19.0779 7.80753 19.3075C7.68679 19.5372 7.5258 19.71 7.32457 19.826C7.12334 19.942 6.87121 20 6.56818 20H6.28409ZM14.8814 20.1136C14.389 20.1136 13.9569 19.9964 13.5852 19.7621C13.2159 19.5277 12.9271 19.1998 12.7188 18.7784C12.5128 18.357 12.4098 17.8646 12.4098 17.3011C12.4098 16.733 12.5128 16.237 12.7188 15.8132C12.9271 15.3894 13.2159 15.0604 13.5852 14.826C13.9569 14.5916 14.389 14.4744 14.8814 14.4744C15.3738 14.4744 15.8047 14.5916 16.174 14.826C16.5457 15.0604 16.8345 15.3894 17.0405 15.8132C17.2488 16.237 17.353 16.733 17.353 17.3011C17.353 17.8646 17.2488 18.357 17.0405 18.7784C16.8345 19.1998 16.5457 19.5277 16.174 19.7621C15.8047 19.9964 15.3738 20.1136 14.8814 20.1136ZM14.8814 19.3608C15.2554 19.3608 15.5632 19.2649 15.8047 19.0732C16.0462 18.8814 16.2249 18.6293 16.3409 18.3168C16.4569 18.0043 16.5149 17.6657 16.5149 17.3011C16.5149 16.9366 16.4569 16.5968 16.3409 16.282C16.2249 15.9671 16.0462 15.7126 15.8047 15.5185C15.5632 15.3243 15.2554 15.2273 14.8814 15.2273C14.5073 15.2273 14.1996 15.3243 13.9581 15.5185C13.7166 15.7126 13.5379 15.9671 13.4219 16.282C13.3059 16.5968 13.2479 16.9366 13.2479 17.3011C13.2479 17.6657 13.3059 18.0043 13.4219 18.3168C13.5379 18.6293 13.7166 18.8814 13.9581 19.0732C14.1996 19.2649 14.5073 19.3608 14.8814 19.3608ZM21.9988 14.5455V15.3267H19.4703V20H18.6323V14.5455H21.9988ZM25.1548 20.1136C24.6624 20.1136 24.2304 19.9964 23.8587 19.7621C23.4893 19.5277 23.2005 19.1998 22.9922 18.7784C22.7862 18.357 22.6832 17.8646 22.6832 17.3011C22.6832 16.733 22.7862 16.237 22.9922 15.8132C23.2005 15.3894 23.4893 15.0604 23.8587 14.826C24.2304 14.5916 24.6624 14.4744 25.1548 14.4744C25.6473 14.4744 26.0781 14.5916 26.4474 14.826C26.8191 15.0604 27.108 15.3894 27.3139 15.8132C27.5223 16.237 27.6264 16.733 27.6264 17.3011C27.6264 17.8646 27.5223 18.357 27.3139 18.7784C27.108 19.1998 26.8191 19.5277 26.4474 19.7621C26.0781 19.9964 25.6473 20.1136 25.1548 20.1136ZM25.1548 19.3608C25.5289 19.3608 25.8366 19.2649 26.0781 19.0732C26.3196 18.8814 26.4983 18.6293 26.6143 18.3168C26.7304 18.0043 26.7884 17.6657 26.7884 17.3011C26.7884 16.9366 26.7304 16.5968 26.6143 16.282C26.4983 15.9671 26.3196 15.7126 26.0781 15.5185C25.8366 15.3243 25.5289 15.2273 25.1548 15.2273C24.7808 15.2273 24.473 15.3243 24.2315 15.5185C23.9901 15.7126 23.8113 15.9671 23.6953 16.282C23.5793 16.5968 23.5213 16.9366 23.5213 17.3011C23.5213 17.6657 23.5793 18.0043 23.6953 18.3168C23.8113 18.6293 23.9901 18.8814 24.2315 19.0732C24.473 19.2649 24.7808 19.3608 25.1548 19.3608Z" fill="black"/>
</svg>