<svg xmlns="http://www.w3.org/2000/svg" width="23" height="18" viewBox="0 0 23 18" fill="none">
  <path d="M20.25 15.1149H18V5.66809L11.25 9.71673L4.5 5.66809V15.1149H2.25V2.15927H3.6L11.25 6.74773L18.9 2.15927H20.25M20.25 0H2.25C1.00125 0 0 0.960877 0 2.15927V15.1149C0 15.6876 0.237053 16.2368 0.65901 16.6418C1.08097 17.0467 1.65326 17.2742 2.25 17.2742H20.25C20.8467 17.2742 21.419 17.0467 21.841 16.6418C22.2629 16.2368 22.5 15.6876 22.5 15.1149V2.15927C22.5 1.5866 22.2629 1.03738 21.841 0.632437C21.419 0.227494 20.8467 0 20.25 0Z" fill="black"/>
</svg>