<svg width="52" height="37" viewBox="0 0 52 37" fill="none" xmlns="http://www.w3.org/2000/svg">
<path d="M46.8 32.375H41.6V12.1406L26 20.8125L10.4 12.1406V32.375H5.2V4.625H8.32L26 14.4531L43.68 4.625H46.8M46.8 0H5.2C2.314 0 0 2.05813 0 4.625V32.375C0 33.6016 0.547855 34.778 1.52304 35.6454C2.49823 36.5127 3.82087 37 5.2 37H46.8C48.1791 37 49.5018 36.5127 50.477 35.6454C51.4521 34.778 52 33.6016 52 32.375V4.625C52 3.39837 51.4521 2.22199 50.477 1.35463C49.5018 0.487275 48.1791 0 46.8 0Z" fill="#F6F6F6"/>
</svg>
