<svg width="37" height="36" viewBox="0 0 37 36" fill="none" xmlns="http://www.w3.org/2000/svg">
<path d="M35.4136 24.6669L26.4956 20.7784C26.0915 20.61 25.6506 20.5422 25.2129 20.5814C24.7751 20.6205 24.3543 20.7652 23.9885 21.0025C23.9514 21.0257 23.9161 21.0515 23.8828 21.0796L19.2218 24.9369C19.1734 24.9626 19.1196 24.9769 19.0645 24.9788C19.0095 24.9808 18.9548 24.9702 18.9046 24.9479C15.9087 23.541 12.8051 20.5396 11.3534 17.665C11.3292 17.617 11.3166 17.5642 11.3166 17.5107C11.3166 17.4573 11.3292 17.4045 11.3534 17.3564L15.331 12.7644C15.3595 12.7305 15.386 12.6949 15.4103 12.6579C15.6508 12.3007 15.796 11.8908 15.8329 11.4652C15.8699 11.0397 15.7973 10.6119 15.6217 10.2205L11.6535 1.55812C11.4282 1.04677 11.0385 0.620322 10.5428 0.342786C10.0472 0.0652498 9.47249 -0.0484064 8.90486 0.018875C6.43791 0.334431 4.17345 1.51318 2.53465 3.33485C0.895851 5.15653 -0.00514936 7.49646 2.21392e-05 9.9174C2.21392e-05 24.2996 12.0254 36 26.807 36C29.2951 36.0046 31.6998 35.1278 33.572 33.5334C35.4442 31.939 36.6558 29.7359 36.9805 27.3358C37.0495 26.7861 36.9343 26.2294 36.652 25.7485C36.3696 25.2676 35.9353 24.8883 35.4136 24.6669ZM26.807 33.7958C13.2752 33.7958 2.2654 23.0836 2.2654 9.9174C2.25909 8.03271 2.95824 6.21026 4.23222 4.79054C5.5062 3.37082 7.26785 2.45096 9.18804 2.20283H9.23146C9.30753 2.20421 9.3814 2.22793 9.44339 2.27087C9.50537 2.3138 9.55258 2.37396 9.57881 2.44345L13.5621 11.0966C13.5848 11.1447 13.5966 11.1971 13.5966 11.25C13.5966 11.3029 13.5848 11.3553 13.5621 11.4034L9.57693 16.0064C9.5472 16.0393 9.52006 16.0743 9.49575 16.1111C9.24638 16.4815 9.09953 16.9083 9.06944 17.3501C9.03934 17.7919 9.12701 18.2338 9.32396 18.633C10.9985 21.9687 14.4532 25.3043 17.9192 26.9335C18.3319 27.1241 18.7883 27.2073 19.2438 27.1751C19.6994 27.143 20.1387 26.9964 20.5187 26.7498C20.5546 26.726 20.5905 26.7003 20.6244 26.6727L25.2836 22.8154C25.3296 22.7914 25.3804 22.7773 25.4325 22.7741C25.4847 22.7709 25.5369 22.7788 25.5856 22.7971L34.5056 26.6856C34.5784 26.7157 34.6397 26.7675 34.6807 26.8334C34.7217 26.8993 34.7403 26.9761 34.734 27.0529C34.4803 28.9221 33.5358 30.6374 32.077 31.8783C30.6181 33.1193 28.7448 33.8009 26.807 33.7958Z" fill="#F6F6F6"/>
</svg>
