<svg xmlns="http://www.w3.org/2000/svg" width="26" height="25" viewBox="0 0 26 25" fill="none">
  <path d="M24.8852 17.1298L18.6185 14.4295C18.3346 14.3125 18.0248 14.2654 17.7171 14.2926C17.4095 14.3198 17.1138 14.4203 16.8568 14.5851C16.8307 14.6012 16.8059 14.6191 16.7825 14.6386L13.5072 17.3173C13.4732 17.3351 13.4354 17.3451 13.3967 17.3464C13.358 17.3477 13.3196 17.3404 13.2843 17.325C11.1791 16.3479 8.99818 14.2636 7.97804 12.2674C7.96105 12.234 7.95222 12.1974 7.95222 12.1602C7.95222 12.1231 7.96105 12.0864 7.97804 12.0531L10.7731 8.8642C10.7932 8.8406 10.8118 8.8159 10.8288 8.79021C10.9978 8.54212 11.0999 8.25747 11.1259 7.96196C11.1518 7.66644 11.1008 7.36936 10.9774 7.09755L8.18897 1.08202C8.03061 0.726921 7.75675 0.430779 7.40849 0.238046C7.06023 0.0453124 6.65635 -0.0336156 6.25747 0.0131076C4.52394 0.232244 2.93269 1.05082 1.78111 2.31587C0.629517 3.58092 -0.00361847 5.20588 1.55572e-05 6.88708C1.55572e-05 16.8747 8.4503 25 18.8374 25C20.5858 25.0032 22.2756 24.3943 23.5911 23.2871C24.9067 22.1798 25.7581 20.6499 25.9863 18.9832C26.0348 18.6014 25.9538 18.2148 25.7554 17.8809C25.5571 17.547 25.2519 17.2835 24.8852 17.1298ZM18.8374 23.4693C9.32849 23.4693 1.59191 16.0303 1.59191 6.88708C1.58747 5.57827 2.07876 4.31268 2.97399 3.32676C3.86922 2.34085 5.10714 1.70206 6.45646 1.52974H6.48697C6.54043 1.5307 6.59234 1.54717 6.63589 1.57699C6.67945 1.60681 6.71262 1.64858 6.73106 1.69684L9.53013 7.70599C9.5461 7.7394 9.55436 7.77573 9.55436 7.8125C9.55436 7.84927 9.5461 7.8856 9.53013 7.91901L6.72973 11.1156C6.70884 11.1384 6.68977 11.1627 6.67269 11.1883C6.49746 11.4455 6.39427 11.7419 6.37312 12.0487C6.35197 12.3555 6.41358 12.6624 6.55197 12.9396C7.72864 15.256 10.1563 17.5724 12.5919 18.7038C12.8819 18.8362 13.2026 18.894 13.5227 18.8716C13.8429 18.8493 14.1515 18.7475 14.4186 18.5763C14.4438 18.5597 14.469 18.5418 14.4929 18.5227L17.7668 15.844C17.7992 15.8273 17.8349 15.8175 17.8715 15.8153C17.9081 15.8131 17.9448 15.8186 17.9791 15.8313L24.2472 18.5316C24.2984 18.5526 24.3414 18.5885 24.3702 18.6343C24.399 18.6801 24.4121 18.7334 24.4077 18.7867C24.2294 20.0848 23.5657 21.276 22.5406 22.1377C21.5154 22.9995 20.199 23.4728 18.8374 23.4693Z" fill="white"/>
</svg>