<svg xmlns="http://www.w3.org/2000/svg" width="20" height="18" viewBox="0 0 20 18" fill="none">
  <path d="M19.0693 12.0823L14.4561 10.1776C14.247 10.0951 14.019 10.0619 13.7925 10.0811C13.5661 10.1003 13.3484 10.1712 13.1592 10.2874C13.14 10.2987 13.1217 10.3114 13.1045 10.3252L10.6934 12.2145C10.6684 12.2271 10.6405 12.2341 10.612 12.2351C10.5836 12.236 10.5552 12.2308 10.5293 12.2199C8.9795 11.5308 7.37403 10.0607 6.62306 8.65264C6.61055 8.62911 6.60405 8.60326 6.60405 8.57706C6.60405 8.55087 6.61055 8.52502 6.62306 8.50149L8.68067 6.25225C8.69544 6.2356 8.70913 6.21818 8.72169 6.20006C8.84609 6.02508 8.92124 5.8243 8.94033 5.61586C8.95943 5.40742 8.92187 5.19789 8.83107 5.00617L6.77833 0.763192C6.66176 0.512724 6.46015 0.303844 6.20378 0.167902C5.94741 0.0319605 5.65009 -0.0237103 5.35646 0.00924528C4.08031 0.16381 2.90891 0.741183 2.06117 1.63347C1.21342 2.52576 0.747336 3.6719 0.750011 4.85772C0.750011 11.9023 6.97071 17.6334 14.6172 17.6334C15.9043 17.6357 17.1482 17.2062 18.1167 16.4252C19.0852 15.6443 19.7119 14.5652 19.8799 13.3895C19.9156 13.1203 19.856 12.8476 19.7099 12.6121C19.5639 12.3765 19.3392 12.1907 19.0693 12.0823ZM14.6172 16.5538C7.6172 16.5538 1.92189 11.3067 1.92189 4.85772C1.91862 3.93456 2.28029 3.04189 2.93931 2.34649C3.59834 1.65109 4.50964 1.20052 5.50294 1.07899H5.5254C5.56476 1.07966 5.60297 1.09128 5.63503 1.11231C5.6671 1.13334 5.69152 1.16281 5.70509 1.19685L7.76564 5.43532C7.77739 5.45889 7.78347 5.48451 7.78347 5.51045C7.78347 5.53638 7.77739 5.56201 7.76564 5.58557L5.70411 7.84021C5.68873 7.85631 5.6747 7.87345 5.66212 7.89149C5.53312 8.07292 5.45716 8.28197 5.44159 8.49838C5.42602 8.7148 5.47137 8.93125 5.57325 9.12678C6.43946 10.7606 8.22657 12.3945 10.0195 13.1925C10.233 13.2859 10.4691 13.3266 10.7048 13.3109C10.9405 13.2951 11.1677 13.2233 11.3643 13.1025C11.3828 13.0908 11.4014 13.0782 11.419 13.0648L13.8291 11.1754C13.8529 11.1636 13.8792 11.1567 13.9062 11.1551C13.9331 11.1536 13.9602 11.1574 13.9854 11.1664L18.5996 13.0711C18.6373 13.0858 18.669 13.1112 18.6902 13.1435C18.7114 13.1758 18.7211 13.2134 18.7178 13.251C18.5866 14.1665 18.098 15.0067 17.3433 15.6146C16.5887 16.2224 15.6196 16.5563 14.6172 16.5538Z" fill="black"/>
</svg>